<svg xmlns="http://www.w3.org/2000/svg" xmlns:xlink="http://www.w3.org/1999/xlink" viewBox="0 0 300 345"><defs><linearGradient id="A" x1="150" y1="356.11" x2="150" y2="161.16" gradientUnits="userSpaceOnUse"><stop offset="0" stop-color="#fabc2e"/><stop offset="1" stop-color="#cd8029"/></linearGradient><linearGradient id="B" x1="262.25" y1="228.96" x2="277.18" y2="283.47" gradientUnits="userSpaceOnUse"><stop offset="0" stop-color="#fabc2e" stop-opacity=".1"/><stop offset="1" stop-color="#f27ba5"/></linearGradient><linearGradient id="C" x1="42.75" y1="221.68" x2="19.53" y2="288.93" xlink:href="#B"/></defs><path d="M263.62,345H36.38A36.38,36.38,0,0,1,0,308.62V259.14H300v49.48A36.38,36.38,0,0,1,263.62,345Z" fill="url(#A)"/><rect y="45" width="300" height="253.39" rx="36.38" fill="#ffcd05"/><ellipse cx="271.63" cy="263.25" rx="17.59" ry="13.87" fill="url(#B)"/><ellipse cx="28.37" cy="263.25" rx="17.59" ry="13.87" fill="url(#C)"/><g fill="#fabc2e"><circle cx="247.53" cy="199.19" r="44.15"/><circle cx="52.47" cy="199.19" r="44.15"/></g><g fill="#fff"><circle cx="247.53" cy="211.45" r="44.15"/><circle cx="52.47" cy="211.45" r="44.15"/></g><path d="M90.94 205a16 16 0 0 1-23.24-21.65 28.12 28.12 0 0 0-3.91-.28 27.81 27.81 0 1 0 27.15 22zm-38.8 24a6.61 6.61 0 1 1 6.6-6.6 6.61 6.61 0 0 1-6.6 6.6zm211.2-24.12a16 16 0 0 1-23.11-21.51 27.72 27.72 0 1 0 23.11 21.51zm-39 24.1a6.61 6.61 0 1 1 6.61-6.6 6.61 6.61 0 0 1-6.64 6.63z" fill="#414042"/><path d="M87 298.4h126.38c-11.82-25.7-32.36-46.6-63.38-46.6s-51.56 20.9-63.38 46.6z" fill="#fabc2e"/><path d="M201.57 247.94c0 18.83-23.1 36.9-51.57 36.9s-51.57-18.06-51.57-36.9S128.8 205.7 150 205.7s51.57 23.4 51.57 42.23z" fill="#e29a25"/><path d="M201.57 237.23c0 18.83-23.1 36.9-51.57 36.9s-51.57-18.06-51.57-36.9S128.8 195 150 195s51.57 23.4 51.57 42.23z" fill="#f57f21"/><path d="M150 259.66c-26.44 0-48.92-11.65-48.92-11.65 6.82 13.54 26.14 26.1 48.92 26.1s42.1-12.57 48.92-26.1c0-.01-22.48 11.65-48.92 11.65z" fill="#d75927"/><path d="M167.86 218.12c-2.9 6.15-8 6-17.86 6s-14.9.37-17.87-6c-4.18-8.94 8-17.86 17.87-17.86s22.07 8.94 17.86 17.86z" fill="#fbac4c"/><path d="M86.62 298.4H213.4V345H86.62z" fill="#e29a25"/><path d="M95.78 86.53Q93.2 90.8 90.52 95l-4.03 6.3a20.14 20.14 0 0 0-1.25 2 9.23 9.23 0 0 0-.76 7.8 9.54 9.54 0 0 0 5 5.52l.85.3a4.29 4.29 0 0 0 .42.15l.44.08c.3 0 .58.12.87.16h1.3l.44-.08c.3 0 .57-.1.86-.12s.57-.2.86-.28l.42-.13a3.45 3.45 0 0 0 .5-.16l9.28-3.58 9.3-3.5 13.16-4.84 1.94 3.87q5.2 10.4 10.26 20.84l.3.66.16.32.13.24.52.93a13.59 13.59 0 0 0 1.22 1.68 12.58 12.58 0 0 0 3.08 2.65 13.46 13.46 0 0 0 7.95 1.8 12.81 12.81 0 0 0 7.46-3.16 13.18 13.18 0 0 0 2.63-3.19l.5-1 .64-1.3 1.27-2.6q5.16-10.4 10.43-20.76l2-3.94 3.76 1.72 16 7.44 4 1.88.95.44.74.3a7 7 0 0 0 1.52.45 8.31 8.31 0 0 0 6.16-1.26 9.62 9.62 0 0 0 3.3-12.6l-7.7-16c3.62 4.7 7.07 9.48 10.54 14.26.43.65.85 1.42 1.27 2.14a23.79 23.79 0 0 1 .88 2.41 13.24 13.24 0 0 1 .29 5.21 14.53 14.53 0 0 1-1.66 5 15.39 15.39 0 0 1-3.45 4.11c-.36.28-.7.6-1.07.85l-1.18.7-.6.35-.64.28-1.3.52a19.36 19.36 0 0 1-2.76.61l-1.42.08h-.7l-.7-.06a12.93 12.93 0 0 1-2.78-.47l-1.36-.4c-.45-.14-.72-.25-1.1-.38l-4.15-1.53-16.54-6.2 5.77-2.2-9.42 21.24-1.2 2.64-.6 1.32-.82 1.6a22.63 22.63 0 0 1-4.57 5.86 23 23 0 0 1-13.47 5.92 23.24 23.24 0 0 1-14.31-3.32 22.51 22.51 0 0 1-5.64-4.92 21.71 21.71 0 0 1-2.12-3.06c-.33-.53-.58-1.1-.86-1.63l-.2-.4-.15-.33-.3-.66q-4.83-10.56-9.5-21.2l5.76 2.47-9.5 2.9-9.53 2.83-9.55 2.75a7.71 7.71 0 0 1-.7.18l-.78.17c-.52.1-1 .22-1.56.28l-1.6.07h-.8c-.27 0-.54-.06-.8-.1l-1.6-.22c-.52-.12-1-.3-1.54-.45l-.76-.25c-.25-.1-.48-.22-.72-.33l-1.42-.72a15 15 0 0 1-6.85-9.75 13.53 13.53 0 0 1 .07-5.94 12.34 12.34 0 0 1 1-2.76c.23-.43.42-.87.68-1.27l.85-1.15a21.92 21.92 0 0 1 1.67-2l1.7-1.84 3.36-3.68c2.25-2.2 4.54-4.62 6.85-7.02z" fill="#eaa622"/></svg>