<svg xmlns="http://www.w3.org/2000/svg" xmlns:xlink="http://www.w3.org/1999/xlink" viewBox="0 0 300 345"><defs><linearGradient id="A" x1="150" y1="356.11" x2="150" y2="161.16" gradientUnits="userSpaceOnUse"><stop offset="0" stop-color="#bfe7fb"/><stop offset=".69" stop-color="#4cc9f5"/></linearGradient><path id="B" d="M196.72 247.18c0 17.06-20.92 33.43-46.72 33.43s-46.72-16.37-46.72-33.43 27.5-38.26 46.72-38.26 46.72 21.2 46.72 38.26z"/><path id="C" d="M150 252.36s-35.68 25.55-35.68 51.32a19.16 19.16 0 0 0 35.68 9.71 19.16 19.16 0 0 0 35.68-9.71c0-25.77-35.68-51.32-35.68-51.32z"/></defs><path d="M263.62,345H36.38A36.38,36.38,0,0,1,0,308.62V259.14H300v49.48A36.38,36.38,0,0,1,263.62,345Z" fill="url(#A)"/><rect y="45" width="300" height="253.39" rx="36.38" fill="#e4f5fd"/><g fill="#bfe7fb"><circle cx="242.58" cy="189.94" r="36.45"/><circle cx="57.42" cy="189.94" r="36.45"/></g><g fill="#fff"><circle cx="242.58" cy="200.06" r="36.45"/><circle cx="57.42" cy="200.06" r="36.45"/></g><path d="M89.18 194.77A13.21 13.21 0 0 1 70 176.86a23 23 0 1 0 19.19 17.91zm-32 19.76a5.46 5.46 0 1 1 5.45-5.45 5.45 5.45 0 0 1-5.49 5.45zm198.45-19.9a13.22 13.22 0 0 1-19.07-17.77 24.25 24.25 0 0 0-3.32-.24 23 23 0 1 0 22.39 18zm-32.22 19.9a5.46 5.46 0 1 1 5.46-5.45 5.45 5.45 0 0 1-5.46 5.45z" fill="#414042"/><path d="M87 298.4h126.38c-11.82-25.7-32.36-46.6-63.38-46.6s-51.56 20.9-63.38 46.6z" fill="#f4fbfe"/><path d="M86.62 298.4H213.4V345H86.62z" fill="#c7eafb"/><use xlink:href="#B" fill="#bfe7fb"/><use xlink:href="#C" fill="#4cc9f5"/><use xlink:href="#C" y="-7" fill="#ed1c24"/><use xlink:href="#B" y="-9.7" fill="#f57f21"/><path d="M150 257.8c-24 0-44.33-10.55-44.33-10.55 6.2 12.27 23.7 23.66 44.33 23.66s38.14-11.4 44.33-23.66c0 0-20.33 10.55-44.33 10.55z" fill="#d75927"/><path d="M166.18 220.17c-2.63 5.57-7.24 5.4-16.18 5.4s-13.5.34-16.2-5.4C130 212.07 141.06 204 150 204s20 8.08 16.18 16.17z" fill="#fbac4c"/><path d="M67.46 79c10.34 26.43 40.87 25.18 40.87 25.18s-15.18 10.15-8.58 27 28 14.66 35 11.9 11.15 13.15 19.16 10c14.87-5.84 15.66-77.1-14.26-108.1H71.8c-5.7 7.32-10.26 18.8-4.33 34z" fill="#bfe7fb"/><path d="M125.68 21.5c-4.08.7-29.77 6.34-29.77 34.7s28.88 38.34 28.88 38.34-17.8 3.93-17.8 22.04 20.7 23.85 28.25 23.85 5.58 16.3 14.2 16.3c35.84 0 53.28-148.73-23.76-135.24z" fill="#ed1c24"/></svg>