<svg xmlns="http://www.w3.org/2000/svg" viewBox="0 0 300 345"><defs><linearGradient id="A" x1="150" y1="356.11" x2="150" y2="161.16" gradientUnits="userSpaceOnUse"><stop offset="0" stop-color="#414042"/><stop offset=".52" stop-color="#353333"/></linearGradient><linearGradient id="B" x1="150" y1="356.12" x2="150" y2="161.02" gradientUnits="userSpaceOnUse"><stop offset="0" stop-color="#bfe7fb"/><stop offset=".69" stop-color="#4cc9f5"/></linearGradient></defs><path d="M263.62 345h-6.1s2.3-75.22-107.5-75.22S40.18 345 40.18 345h-3.8A36.38 36.38 0 0 1 0 308.62v-49.48h300v49.48A36.38 36.38 0 0 1 263.62 345z" fill="url(#A)"/><path d="M38.57 259.08h222.85V345H38.57z" fill="url(#B)"/><path d="M263.62,45H204.87L150,91.22,95.05,45H36.38A36.38,36.38,0,0,0,0,81.38V262a36.38,36.38,0,0,0,36.38,36.38H263.62A36.38,36.38,0,0,0,300,262V81.38A36.38,36.38,0,0,0,263.62,45Z" fill="#58595b"/><path d="M205.1 45H94.9c5.22 23 20 91.2 20 127.5 0 44.1-76.3 79.48-76.3 125.9h222.82c0-46.4-76.3-81.8-76.3-125.9 0-36.3 14.74-104.5 19.96-127.5z" fill="#e4f5fd"/><circle cx="45.92" cy="189.94" r="36.45" fill="#414042"/><circle cx="45.92" cy="200.06" r="36.45" fill="#fff"/><g fill="#414042"><path d="M77.68 194.77a13.21 13.21 0 0 1-19.19-17.91 23 23 0 1 0 19.19 17.91zm-32.05 19.76a5.46 5.46 0 1 1 5.46-5.45 5.45 5.45 0 0 1-5.46 5.45z"/><circle cx="254.08" cy="189.94" r="36.45"/></g><circle cx="254.08" cy="200.06" r="36.45" fill="#fff"/><path d="M267.13 194.64a13.22 13.22 0 0 1-19.07-17.77 24.25 24.25 0 0 0-3.32-.24 23 23 0 1 0 22.39 18zm-32.2 19.9a5.46 5.46 0 1 1 5.45-5.45 5.46 5.46 0 0 1-5.45 5.45z" fill="#414042"/><path d="M150.16 215.76c-48.46 0-74.1 18.37-74.1 53.1s9.9 51 74.1 51 74.1-17.18 74.1-51-25.65-53.1-74.1-53.1z" fill="#f6a9cb"/><path d="M207.24 261.57a14.27 14.27 0 0 1-24.16 15.19c-4.2-6.67.5-26 .5-26s19.46 4.13 23.65 10.8z" fill="#dd7399"/><path d="M204.38 269a14.09 14.09 0 0 1 2.12 8.83 14.23 14.23 0 0 0 .74-16.23c-4.2-6.68-23.65-10.8-23.65-10.8s-.8 3.35-1.46 7.73c4.53 1.06 18.74 4.86 22.25 10.48z" fill="#cc517e"/><path d="M93.07 261.57a14.27 14.27 0 0 0 24.16 15.19c4.2-6.67-.5-26-.5-26s-19.45 4.13-23.65 10.8z" fill="#dd7399"/><path d="M95.93 269c3.5-5.6 17.73-9.4 22.25-10.48-.65-4.38-1.46-7.73-1.46-7.73s-19.45 4.13-23.65 10.8a14.25 14.25 0 0 0 .74 16.23 14.22 14.22 0 0 1 2.12-8.83z" fill="#cc517e"/><path d="M14.5 6.66l2.4 63.78a28.8 28.8 0 0 0 57.6 0c0-39.65-60-63.78-60-63.78zm258.1 0l-2.42 63.78a28.8 28.8 0 1 1-57.59 0c0-39.65 60-63.78 60-63.78zM100.73 72l2.74-4.3C94.8 80 90.9 95.93 90.9 111.56c0 27.82 18.4 49.4 23.85 55.16-.98-26.72-8.2-66.38-14.03-94.72zm95.8-4.34a48.74 48.74 0 0 1 2.74 4.3c-5.08 24.7-11.2 57.9-13.35 83.72l-.7.5c10.05-7.08 23.86-21.08 23.86-44.6 0-15.63-3.9-31.56-12.56-43.9z" fill="#414042"/><path d="M100.73 72c5.84 28.4 13 68 14 94.77.94 1 1.5 1.54 1.5 1.54l14.94-29.3-.46 30c37.14-12.52 39.3-27.08 39.3-27.08l5 20.08a55.73 55.73 0 0 0 10.93-6.33c2.15-25.82 8.27-59 13.35-83.72C190.14 56.22 174.26 45 150 45s-40.14 11.22-49.27 27z" fill="#bfe7fb"/><path d="M209.1 93.24c0 36.93-34.1 50.44-34.1 50.44V106.4s-.9 31.75-38 44.27l1.82-49-22.5 48.25s-25.4-24.06-25.4-56.7 16.9-66.57 59.1-66.57 59.1 33.93 59.1 66.57z" fill="#e4f5fd"/></svg>