<svg id="Layer_1" data-name="Layer 1" xmlns="http://www.w3.org/2000/svg" xmlns:xlink="http://www.w3.org/1999/xlink" viewBox="0 0 300 345"><defs><style>.cls-1{fill:url(#linear-gradient);}.cls-2{fill:#12543f;fill-opacity:0.4;}.cls-3{fill:#2fa04a;}.cls-4{fill:url(#linear-gradient-2);}.cls-5{fill:url(#linear-gradient-3);}.cls-6{fill:url(#linear-gradient-4);}.cls-7{fill:url(#linear-gradient-5);}.cls-8{fill:url(#linear-gradient-6);}.cls-9{fill:url(#linear-gradient-7);}.cls-10,.cls-13,.cls-14,.cls-15{fill:#237d3e;}.cls-10{fill-opacity:0.8;}.cls-11{fill:#fff;}.cls-12{fill:#414042;}.cls-13{opacity:0.5;}.cls-14{fill-opacity:0.5;}.cls-15{opacity:0.6;}.cls-16{fill:#58595b;}.cls-17{fill:#bcbec0;}</style><linearGradient id="linear-gradient" x1="150" y1="347.09" x2="150" y2="229.5" gradientUnits="userSpaceOnUse"><stop offset="0" stop-color="#1f8e58"/><stop offset="1" stop-color="#104931"/><stop offset="1" stop-color="#176737"/></linearGradient><linearGradient id="linear-gradient-2" x1="150" y1="30.55" x2="150" y2="115.03" gradientUnits="userSpaceOnUse"><stop offset="0" stop-color="#237d3e" stop-opacity="0.5"/><stop offset="1" stop-color="#2fa04a"/></linearGradient><linearGradient id="linear-gradient-3" x1="188.77" y1="58.01" x2="188.77" y2="142.49" xlink:href="#linear-gradient-2"/><linearGradient id="linear-gradient-4" x1="111.23" y1="58.01" x2="111.23" y2="142.49" xlink:href="#linear-gradient-2"/><linearGradient id="linear-gradient-5" x1="150" y1="90.13" x2="150" y2="174.61" xlink:href="#linear-gradient-2"/><linearGradient id="linear-gradient-6" x1="188.77" y1="117.59" x2="188.77" y2="202.08" xlink:href="#linear-gradient-2"/><linearGradient id="linear-gradient-7" x1="111.23" y1="117.59" x2="111.23" y2="202.08" xlink:href="#linear-gradient-2"/></defs><title>blook_dragon</title><path class="cls-1" d="M263.62,344.81H36.38A36.38,36.38,0,0,1,0,308.43V255.05H300v53.38A36.38,36.38,0,0,1,263.62,344.81Z"/><rect class="cls-2" x="71.09" y="292.16" width="157.78" height="52.65"/><rect class="cls-3" y="44.37" width="300" height="253.39" rx="36.38"/><path class="cls-3" d="M69.41,287.54c2.91,18.2,10.94,51.19,80.72,51.19s77.5-32.64,80.46-51.19C230.61,287.39,69.39,287.39,69.41,287.54Z"/><path class="cls-4" d="M149.38,103.51a8.31,8.31,0,0,1-5.95-2.92l-16-20a7.2,7.2,0,0,1,0-9l16-20a8.27,8.27,0,0,1,5.95-2.92c.41,0,.83,0,1.24,0a8.27,8.27,0,0,1,5.95,2.92l16,20a7.2,7.2,0,0,1,0,9l-16,20a8.48,8.48,0,0,1-6.57,3Z"/><path class="cls-5" d="M188.16,131a8.33,8.33,0,0,1-6-2.92l-16-20a7.18,7.18,0,0,1,0-9l16-20a8.29,8.29,0,0,1,6-2.92q.61,0,1.23,0a8.29,8.29,0,0,1,6,2.92l16,20a7.18,7.18,0,0,1,0,9l-16,20a8.45,8.45,0,0,1-6.57,2.95C188.58,131,188.37,131,188.16,131Z"/><path class="cls-6" d="M110.61,131a8.33,8.33,0,0,1-6-2.92l-16-20a7.18,7.18,0,0,1,0-9l16-20a8.29,8.29,0,0,1,6-2.92q.61,0,1.23,0a8.29,8.29,0,0,1,6,2.92l16,20a7.18,7.18,0,0,1,0,9l-16,20a8.45,8.45,0,0,1-6.57,2.95C111,131,110.82,131,110.61,131Z"/><path class="cls-7" d="M149.38,163.09a8.26,8.26,0,0,1-5.95-2.91l-16-20a7.22,7.22,0,0,1,0-9l16-20a8.24,8.24,0,0,1,5.95-2.92,8.55,8.55,0,0,1,1.24,0,8.24,8.24,0,0,1,5.95,2.92l16,20a7.22,7.22,0,0,1,0,9l-16,20a8.52,8.52,0,0,1-6.57,3C149.81,163.11,149.6,163.11,149.38,163.09Z"/><path class="cls-8" d="M188.16,190.55a8.29,8.29,0,0,1-6-2.91l-16-20a7.19,7.19,0,0,1,0-9l16-20a8.26,8.26,0,0,1,6-2.92,8.42,8.42,0,0,1,1.23,0,8.26,8.26,0,0,1,6,2.92l16,20a7.19,7.19,0,0,1,0,9l-16,20a8.49,8.49,0,0,1-6.57,2.95C188.58,190.57,188.37,190.57,188.16,190.55Z"/><path class="cls-9" d="M110.61,190.55a8.29,8.29,0,0,1-6-2.91l-16-20a7.19,7.19,0,0,1,0-9l16-20a8.26,8.26,0,0,1,6-2.92,8.42,8.42,0,0,1,1.23,0,8.26,8.26,0,0,1,6,2.92l16,20a7.19,7.19,0,0,1,0,9l-16,20a8.49,8.49,0,0,1-6.57,2.95C111,190.57,110.82,190.57,110.61,190.55Z"/><path class="cls-10" d="M205.9,231.94a42.18,42.18,0,1,0,78.17-31.73C275.31,178.63,197.14,210.35,205.9,231.94Z"/><path class="cls-10" d="M94.1,231.94a42.18,42.18,0,0,1-78.17-31.73C24.69,178.63,102.86,210.35,94.1,231.94Z"/><path class="cls-11" d="M94.1,239.66a42.18,42.18,0,0,1-78.17-31.72C24.69,186.35,102.86,218.07,94.1,239.66Z"/><path class="cls-11" d="M205.9,239.66a42.18,42.18,0,0,0,78.17-31.72C275.31,186.35,197.14,218.07,205.9,239.66Z"/><path class="cls-12" d="M90.27,235.1a13.21,13.21,0,0,1-11.94-18.93,109.08,109.08,0,0,0-26.18-11.91,26.53,26.53,0,1,0,37.68,33c.3-.73.56-1.47.79-2.22ZM57.14,247.89a5.45,5.45,0,1,1,5.45-5.45A5.45,5.45,0,0,1,57.14,247.89Z"/><path class="cls-12" d="M259.43,235.1a13.23,13.23,0,0,1-5-25.5,26.75,26.75,0,0,0-6.63-5.34c-16.16,4.92-32.93,14.3-39.62,23.79a26.53,26.53,0,0,0,51.9,7C259.89,235.07,259.66,235.1,259.43,235.1Zm-36,12.79a5.45,5.45,0,1,1,5.46-5.45A5.45,5.45,0,0,1,223.41,247.89Z"/><path class="cls-13" d="M119.83,285.12a21.51,21.51,0,0,1,3.13-2.57,32.93,32.93,0,0,1,3.46-2.11,45.71,45.71,0,0,1,7.5-3.14,55,55,0,0,1,32.16,0,45.71,45.71,0,0,1,7.5,3.14,33.16,33.16,0,0,1,3.47,2.12,22,22,0,0,1,3.12,2.57A100.3,100.3,0,0,0,165,281.89a118.73,118.73,0,0,0-15-1,116.89,116.89,0,0,0-15,1A99.83,99.83,0,0,0,119.83,285.12Z"/><path class="cls-13" d="M119.83,257.43a21.51,21.51,0,0,1,3.13-2.57,31.33,31.33,0,0,1,3.46-2.11,45.71,45.71,0,0,1,7.5-3.14,55,55,0,0,1,32.16,0,45.71,45.71,0,0,1,7.5,3.14,33.16,33.16,0,0,1,3.47,2.12,22,22,0,0,1,3.12,2.57A100.3,100.3,0,0,0,165,254.2a118.73,118.73,0,0,0-15-1,116.89,116.89,0,0,0-15,1A98.63,98.63,0,0,0,119.83,257.43Z"/><path class="cls-14" d="M195.11,315.33a8.71,8.71,0,1,0-12.21-12.42c-3.43,3.37-4.68,16.8-4.68,16.8S191.68,318.7,195.11,315.33Z"/><path class="cls-14" d="M101.79,315.46a8.7,8.7,0,1,1,12-12.61c3.49,3.31,4.95,16.73,4.95,16.73S105.27,318.78,101.79,315.46Z"/><path class="cls-12" d="M194.37,321.62a8.71,8.71,0,0,0-10.07-14.21c-3.93,2.78-7.3,15.85-7.3,15.85S190.44,324.4,194.37,321.62Z"/><path class="cls-12" d="M102.46,321.62a8.71,8.71,0,1,1,10.07-14.21c3.93,2.78,7.3,15.85,7.3,15.85S106.39,324.4,102.46,321.62Z"/><path class="cls-15" d="M263.62,44.37H236.27a43.66,43.66,0,0,0-6.8,22.78,28.8,28.8,0,0,0,57.6,0c0-3.43.11-8.35.29-14A36.28,36.28,0,0,0,263.62,44.37Z"/><path class="cls-15" d="M12.66,53.18c.18,5.61.29,10.53.29,14a28.8,28.8,0,1,0,57.6,0,43.66,43.66,0,0,0-6.8-22.78H36.38A36.19,36.19,0,0,0,12.66,53.18Z"/><path class="cls-12" d="M222.93,64a28.8,28.8,0,0,0,57.6,0c0-15.91,2.41-63.78,2.41-63.78S222.93,24.31,222.93,64Z"/><path class="cls-16" d="M270.75,27.13a6.89,6.89,0,0,1-6.17-9.93c1.47-3,5.77-6.5,9.09-6.5a3.63,3.63,0,0,1,1.61.35c1.43.71,2.41,2.62,2.69,5.25a13.68,13.68,0,0,1-1,7A6.85,6.85,0,0,1,270.75,27.13Z"/><path class="cls-16" d="M253.51,85.74a27.82,27.82,0,0,1-13.62-3.83c-10.2-5.89-13.55-15.33-8.52-24A12.68,12.68,0,0,1,243,51.13c4.11,0,8.86,1.49,13.73,4.3,8.7,5,16,13.75,10.58,23.2C264.7,83.22,259.78,85.74,253.51,85.74Z"/><path class="cls-16" d="M264.19,51.71a22,22,0,0,1-9.59-2.55c-4.1-2-7.14-4.6-8.79-7.4a9.23,9.23,0,0,1-.27-9.3A9.39,9.39,0,0,1,254.6,27a22.49,22.49,0,0,1,9.72,2.63c6.73,3.35,12.65,9.5,9.06,16.7C271.17,50.78,267.16,51.71,264.19,51.71Z"/><ellipse class="cls-17" cx="259.48" cy="69.09" rx="4.75" ry="6.33" transform="translate(14.51 179.05) rotate(-39.08)"/><circle class="cls-17" cx="266.34" cy="40.88" r="4.75"/><circle class="cls-17" cx="270.96" cy="19.48" r="3.16"/><path class="cls-12" d="M17.06.19S19.47,48.06,19.47,64a28.8,28.8,0,1,0,57.6,0C77.07,24.31,17.06.19,17.06.19Z"/><path class="cls-16" d="M46.49,85.74c-6.27,0-11.19-2.52-13.83-7.11a12.58,12.58,0,0,1-.38-12.51c2-4,5.76-7.69,11-10.69,4.87-2.81,9.62-4.3,13.73-4.3a12.68,12.68,0,0,1,11.66,6.74c5,8.71,1.68,18.15-8.52,24a27.82,27.82,0,0,1-13.62,3.83Z"/><path class="cls-16" d="M35.81,51.71c-3,0-7-.94-9.19-5.39C23,39.12,29,33,35.68,29.62A22.49,22.49,0,0,1,45.4,27a9.41,9.41,0,0,1,9.07,5.47c4.51,9.06-5.8,15.07-9.07,16.7a22,22,0,0,1-9.59,2.55Z"/><path class="cls-16" d="M29.25,27.13a6.83,6.83,0,0,1-6.19-3.85,13.68,13.68,0,0,1-1-7c.28-2.63,1.26-4.54,2.69-5.25a3.63,3.63,0,0,1,1.61-.35c3.32,0,7.62,3.5,9.09,6.5a6.89,6.89,0,0,1,.34,5.27,6.9,6.9,0,0,1-6.51,4.66Z"/><ellipse class="cls-17" cx="58.16" cy="59.03" rx="4.75" ry="6.33" transform="matrix(0.09, -1, 1, 0.09, -5.82, 111.69)"/><circle class="cls-17" cx="45.83" cy="34.4" r="4.75"/><circle class="cls-17" cx="29.04" cy="19.48" r="3.16"/><path class="cls-12" d="M193.56,218.86a52.21,52.21,0,0,1,3.25-7.13q1.81-3.36,3.88-6.45a104.63,104.63,0,0,1,9-11.58,126.18,126.18,0,0,1,10.12-10.3,72.23,72.23,0,0,1,11.58-8.72L241,185.24A72.72,72.72,0,0,1,231.26,196a126.12,126.12,0,0,1-11.18,9.14A104.37,104.37,0,0,1,207.73,213q-3.27,1.78-6.78,3.28A53.13,53.13,0,0,1,193.56,218.86Z"/><path class="cls-12" d="M106.44,218.86a53.13,53.13,0,0,1-7.39-2.59q-3.51-1.5-6.78-3.28a104.37,104.37,0,0,1-12.35-7.87A126.12,126.12,0,0,1,68.74,196,72.72,72.72,0,0,1,59,185.24l9.64-10.56a72.23,72.23,0,0,1,11.58,8.72,126.18,126.18,0,0,1,10.12,10.3,104.63,104.63,0,0,1,9,11.58q2.07,3.09,3.88,6.45A52.21,52.21,0,0,1,106.44,218.86Z"/></svg>