<svg xmlns="http://www.w3.org/2000/svg" xmlns:xlink="http://www.w3.org/1999/xlink" viewBox="0 0 300 345"><defs><linearGradient id="A" x1="150" y1="356.11" x2="150" y2="161.16" gradientUnits="userSpaceOnUse"><stop offset="0" stop-color="#414042"/><stop offset=".52" stop-color="#353333"/></linearGradient><linearGradient id="B" x1="150" y1="351.03" x2="150" y2="245.21" gradientUnits="userSpaceOnUse"><stop offset="0" stop-color="#bfe7fb"/><stop offset=".69" stop-color="#4cc9f5"/></linearGradient><linearGradient id="C" x1="262.25" y1="228.71" x2="277.18" y2="283.22" gradientUnits="userSpaceOnUse"><stop offset="0" stop-color="#ecf7fe" stop-opacity=".1"/><stop offset="1" stop-color="#f27ba5"/></linearGradient><linearGradient id="D" x1="42.75" y1="221.44" x2="19.53" y2="288.68" xlink:href="#C"/></defs><path d="M263.62,345H36.38A36.38,36.38,0,0,1,0,308.62V259.14H300v49.48A36.38,36.38,0,0,1,263.62,345Z" fill="url(#A)"/><path d="M300 79.86C300 41.8 269.57 0 247.6 0c-14.78 0-33.4 21.06-44 45h-20.74L180 28.13c-15.4 0-28.68 10.87-28.68 10.87l8.15-23.85c-26.38 0-37.52 18.14-42 29.85h-20.2C86.86 20 67.6 0 52.4 0 30.43 0 0 46.5 0 79.86V262a36.38 36.38 0 0 0 36.38 36.38h227.24A36.38 36.38 0 0 0 300 262V79.86z" fill="#414042"/><path d="M32.63 298.4S54.6 345 82.1 345H217.9c27.5 0 49.46-46.6 49.46-46.6z" fill="url(#B)"/><path d="M232.22 232.8A36.39 36.39 0 0 1 199 192c6.22-49.48 6.08-122.54-49-122.54S94.8 142.55 101 192a36.39 36.39 0 0 1-33.24 40.78c-36.22 2.88-63.3 7.84-67.76 14.9V262a36.38 36.38 0 0 0 36.38 36.38h227.24A36.38 36.38 0 0 0 300 262v-14.32c-4.45-7.06-31.54-12.02-67.78-14.87z" fill="#e4f5fd"/><ellipse cx="271.63" cy="263" rx="17.59" ry="13.87" fill="url(#C)"/><ellipse cx="28.37" cy="263" rx="17.59" ry="13.87" fill="url(#D)"/><g fill="#231f20"><circle cx="247.53" cy="198.94" r="44.15"/><circle cx="52.47" cy="198.94" r="44.15"/></g><g fill="#fff"><circle cx="247.53" cy="211.2" r="44.15"/><circle cx="52.47" cy="211.2" r="44.15"/></g><path d="M90.94 204.8a16 16 0 0 1-23.24-21.68 28.12 28.12 0 0 0-3.91-.28 27.8 27.8 0 1 0 27.15 22zm-38.8 23.93a6.6 6.6 0 1 1 6.6-6.6 6.6 6.6 0 0 1-6.6 6.6zm211.2-24.1a16 16 0 0 1-23.11-21.52 27.73 27.73 0 1 0 23.11 21.52zm-39 24.08a6.6 6.6 0 1 1 6.61-6.6 6.6 6.6 0 0 1-6.64 6.6z" fill="#414042"/><path d="M98.56 265.13C150 281.8 150 231.83 150 231.83s0 50 51.44 33.3" fill="none" stroke="#414042" stroke-linecap="round" stroke-miterlimit="10" stroke-width="13.58"/><path d="M121.7 213c0 12 16.44 23.3 28.3 23.3s28.3-12.76 28.3-23.3-56.62-12-56.62 0z" fill="#414042"/><g fill="#e4f5fd"><ellipse cx="56.83" cy="139.45" rx="19.37" ry="28.85" transform="matrix(.233954 -.972248 .972248 .233954 -92.05 162.06)"/><ellipse cx="243.17" cy="139.53" rx="28.85" ry="19.37" transform="matrix(.972248 -.233954 .233954 .972248 -25.9 60.78)"/></g><path d="M246.73 12.83c-5.37 0-13.17 5.74-20.37 15a98.08 98.08 0 0 0-15.32 29 182.15 182.15 0 0 1 52.71 26c7-.83 12.82-2.16 16.94-3.9s5-3.25 5-3.48c.01-31.1-25-62.62-38.96-62.62z" fill="#ecf7fe"/><path d="M220.24 59.9a179.72 179.72 0 0 1 43.51 22.85A77 77 0 0 0 277.42 80c-1.16-11.15-5.8-23.44-12.87-33.85-8.4-12.35-16.3-16.35-18.8-16.35-1.72 0-7.6 3-14.84 12.3a89.54 89.54 0 0 0-10.66 17.82z" fill="#dd7399"/><path d="M14.3 75.38c0 .23.87 1.74 5 3.48s9.94 3.07 16.94 3.9A182.15 182.15 0 0 1 89 56.81a98.08 98.08 0 0 0-15.32-29c-7.2-9.24-15-15-20.37-15-14 .02-39 31.55-39 62.57z" fill="#ecf7fe"/><path d="M79.76 59.9a179.72 179.72 0 0 0-43.51 22.85A77 77 0 0 1 22.58 80c1.16-11.15 5.8-23.44 12.87-33.85 8.4-12.35 16.3-16.35 18.8-16.35 1.72 0 7.6 3 14.84 12.3a89.54 89.54 0 0 1 10.66 17.82z" fill="#dd7399"/></svg>