<svg xmlns="http://www.w3.org/2000/svg" viewBox="0 0 300 345"><defs><linearGradient id="A" x1="150" y1="356.11" x2="150" y2="161.16" gradientUnits="userSpaceOnUse"><stop offset="0" stop-color="#e7bf9a"/><stop offset=".69" stop-color="#a3704a"/></linearGradient><linearGradient id="B" x1="150" y1="351.03" x2="150" y2="245.21" gradientUnits="userSpaceOnUse"><stop offset="0" stop-color="#fbe2cd"/><stop offset=".69" stop-color="#e7bf9a"/></linearGradient></defs><path d="M263.62,345H36.38A36.38,36.38,0,0,1,0,308.62V259.14H300v49.48A36.38,36.38,0,0,1,263.62,345Z" fill="url(#A)"/><g fill="#e7bf9a"><rect y="70.78" width="300" height="227.62" rx="36.38"/><path d="M14.48 274.7s-12.77 18.8-2.72 28.86c5.38 5.38 12.2 2.55 17.35-1.24 2 4.47 5.22 8.42 10.5 9.5 13.92 2.85 16.22-20.92 16.22-20.92"/></g><path d="M14.48 274.7a62.77 62.77 0 0 0-3.63 11.89c-.73 3.92-.8 7.9.5 11a10.1 10.1 0 0 0 2.81 3.86 6.36 6.36 0 0 0 3.77 1.66 9.76 9.76 0 0 0 4.44-.88 24.82 24.82 0 0 0 4.69-2.72l3.53-2.5 1.7 3.88a20.51 20.51 0 0 0 2.31 4 11.56 11.56 0 0 0 3.13 2.82 9.89 9.89 0 0 0 3.91 1.3 7.77 7.77 0 0 0 1.93 0 7.05 7.05 0 0 0 1.85-.65c2.5-1.23 4.64-4.13 6.28-7.24a61.69 61.69 0 0 0 4.12-10.21 31.83 31.83 0 0 1-.08 5.69 33 33 0 0 1-1 5.7 24 24 0 0 1-2.21 5.59 14.82 14.82 0 0 1-4.28 5 12 12 0 0 1-3.21 1.63 12.21 12.21 0 0 1-3.58.56 15 15 0 0 1-6.76-1.55 16.52 16.52 0 0 1-5.37-4.25 23.11 23.11 0 0 1-1.93-2.67 29.43 29.43 0 0 1-1.48-2.83l5.24 1.4a27 27 0 0 1-6.2 3.55 15.47 15.47 0 0 1-7.85 1.14A12.65 12.65 0 0 1 9.78 306 15.29 15.29 0 0 1 6 299.35a18.33 18.33 0 0 1-.38-7.26 27.52 27.52 0 0 1 1.85-6.54 36.68 36.68 0 0 1 3.08-5.78 35 35 0 0 1 3.93-5.07z" fill="#aa7750"/><path d="M244.18 291.24s2.3 23.76 16.22 20.9c5.27-1.08 8.5-5 10.5-9.5 5.16 3.8 12 6.63 17.35 1.24 10.05-10-2.72-28.85-2.72-28.85" fill="#e7bf9a"/><path d="M244.18 291.24a61.18 61.18 0 0 0 4.12 10.21c1.63 3.1 3.78 6 6.27 7.25a7.47 7.47 0 0 0 1.86.64 7.32 7.32 0 0 0 1.93 0 9.89 9.89 0 0 0 3.91-1.3 11.58 11.58 0 0 0 3.13-2.82 19.82 19.82 0 0 0 2.31-4l1.7-3.87 3.53 2.48a26 26 0 0 0 4.69 2.72 9.74 9.74 0 0 0 4.44.87 6.43 6.43 0 0 0 3.76-1.66 10 10 0 0 0 2.81-3.86c1.28-3.1 1.22-7.07.5-11a62.64 62.64 0 0 0-3.62-11.9 34.44 34.44 0 0 1 4 5.06 36.68 36.68 0 0 1 3.08 5.78 27.52 27.52 0 0 1 1.85 6.54 18.32 18.32 0 0 1-.38 7.26 15.27 15.27 0 0 1-3.83 6.69 12.62 12.62 0 0 1-7.35 3.78 14 14 0 0 1-4.14-.08A17.59 17.59 0 0 1 275 309a27.52 27.52 0 0 1-6.19-3.55l5.24-1.4a28.3 28.3 0 0 1-1.48 2.83 23.11 23.11 0 0 1-1.93 2.67 16.69 16.69 0 0 1-5.38 4.25 15 15 0 0 1-6.75 1.54 11.89 11.89 0 0 1-3.58-.56 11.75 11.75 0 0 1-3.2-1.62 14.81 14.81 0 0 1-4.28-5 24 24 0 0 1-2.21-5.59 35.89 35.89 0 0 1-1.08-11.38z" fill="#aa7750"/><path d="M19.05 241.33S-.1 253.73 4.82 266.58s24.5.9 30.76-.45" fill="#e7bf9a"/><path d="M19.05 241.33l-5.18 6.37a48 48 0 0 0-4.22 6.47 17.88 17.88 0 0 0-2.18 6.48 10.19 10.19 0 0 0 .11 3 9.31 9.31 0 0 0 1 2.68 4.92 4.92 0 0 0 1.56 1.79 6.07 6.07 0 0 0 2.4 1 20.82 20.82 0 0 0 7-.17c2.53-.37 5.14-1 7.8-1.55l4.07-.8a19.89 19.89 0 0 1 4.23-.4l-7 4.4a44.94 44.94 0 0 1-7.68 3.68 21.32 21.32 0 0 1-9.22 1.42 12.47 12.47 0 0 1-5.26-1.73 11.61 11.61 0 0 1-3.91-4.17 15.82 15.82 0 0 1-1.69-5 15.62 15.62 0 0 1 .16-5.16 19.78 19.78 0 0 1 4.16-8.46 30.56 30.56 0 0 1 6.43-5.9 33.11 33.11 0 0 1 3.53-2.28 24.71 24.71 0 0 1 3.88-1.67z" fill="#aa7750"/><path d="M281 241.42s19.15 12.4 14.23 25.25-24.5.9-30.76-.45" fill="#e7bf9a"/><path d="M281 241.42a24.75 24.75 0 0 1 3.88 1.69 31.56 31.56 0 0 1 3.65 2.2 30.56 30.56 0 0 1 6.43 5.9 19.78 19.78 0 0 1 4.16 8.46 14.7 14.7 0 0 1-1.53 10.16 11.61 11.61 0 0 1-3.91 4.17 12.33 12.33 0 0 1-5.26 1.73 21.32 21.32 0 0 1-9.22-1.42 44.59 44.59 0 0 1-7.68-3.68l-7.05-4.4a20.56 20.56 0 0 1 4.23.4l11.88 2.36a20.82 20.82 0 0 0 7 .17 5.92 5.92 0 0 0 2.4-1 4.88 4.88 0 0 0 1.56-1.78 9.48 9.48 0 0 0 1-2.69 10.19 10.19 0 0 0 .11-3 17.88 17.88 0 0 0-2.18-6.48 48 48 0 0 0-4.22-6.47l-5.25-6.3z" fill="#aa7750"/><g fill="#c59a74"><circle cx="242.58" cy="209.68" r="36.45"/><circle cx="57.42" cy="209.68" r="36.45"/></g><g fill="#fff"><circle cx="242.58" cy="219.8" r="36.45"/><circle cx="57.42" cy="219.8" r="36.45"/></g><path d="M89.18 214.5A13.21 13.21 0 0 1 70 196.6a23 23 0 1 0 19.19 17.91zm-32 19.76a5.46 5.46 0 1 1 5.45-5.46 5.46 5.46 0 0 1-5.49 5.46zm198.45-19.88a13.22 13.22 0 0 1-19.07-17.77 24.25 24.25 0 0 0-3.32-.24 23 23 0 1 0 22.39 18zm-32.22 19.9a5.46 5.46 0 1 1 5.46-5.46 5.46 5.46 0 0 1-5.46 5.46z" fill="#414042"/><path d="M98.2 298.4H201.8V345H98.2z" fill="url(#B)"/><g fill="#fbe2cd"><path d="M201.8 298.4H98.2S62 204.87 150 204.87s51.8 93.52 51.8 93.52z"/><path d="M184.9 226.37H115.1S66.76 92.05 150 92.05s34.9 134.32 34.9 134.32z"/></g><path d="M150 253.75l-27.24 12.1c.74 12.47 6.2 23.38 27.24 23.38 20.86 0 26.4-10.65 27.22-23z" fill="#808285"/><path d="M150 250.68l-22.17 14.9c.6 10.15 5 18.4 22.17 18.4 17 0 21.48-8 22.15-18.12z" fill="#fff"/><g fill="none" stroke-miterlimit="10"><path d="M150 246.66v39.22" stroke="#808285" stroke-width="5"/><g stroke-linecap="round"><path d="M190 249.58c0 22.64-40 19.22-40-9.87 0 29.1-40 32.5-40 9.87" stroke="#414042" stroke-width="7.96"/><path d="M170.9 227.4s-6.6 11.93-20.9 11.93-20.9-11.93-20.9-11.93" stroke="#dd7399" stroke-width="9"/></g></g><path d="M185.93 70.78c10.3 43.6 32.4 81.1 64 69.87 25.3-9 33.45-35.88 31-66.25A36.23 36.23 0 0 0 265 70.78zm-148.16 0A36.3 36.3 0 0 0 19 76c-2 29.7 6.26 55.8 31.12 64.65 31.54 11.23 53.66-26.26 64-69.87z" fill="#c59a74"/><path d="M83.65 1.13C37.24-13.95-18.2 126.9 41 148 95.15 167.22 115.42 11.45 83.65 1.13z" fill="#e7bf9a"/><path d="M67.7 83.35c-19.44-6.35-42.7 46-17.85 54.83C72.5 146.24 81 87.67 67.7 83.35z" fill="#f6a9cb"/><path d="M216.35 1.13C262.76-13.95 318.2 126.9 259 148c-54.15 19.22-74.42-136.55-42.65-146.87z" fill="#e7bf9a"/><path d="M232.3 83.35c19.44-6.32 42.67 46 17.85 54.83-22.67 8.06-31.16-50.5-17.85-54.83z" fill="#f6a9cb"/></svg>