<svg id="Layer_1" data-name="Layer 1" xmlns="http://www.w3.org/2000/svg" xmlns:xlink="http://www.w3.org/1999/xlink" viewBox="0 0 300 345"><defs><style>.cls-1{fill:url(#linear-gradient);}.cls-2{fill:url(#linear-gradient-2);}.cls-3{fill:#dae6f5;}.cls-4{fill:#ed1c24;}.cls-5{fill:#9a1c25;}.cls-6{fill:#00aeef;}.cls-7{fill:#2e3192;}.cls-8{fill:#7ca1d5;}.cls-9{fill:#fff;}.cls-10{fill:#414042;}.cls-11{fill:#231f20;}.cls-12{fill:#d8c6bf;}</style><linearGradient id="linear-gradient" x1="150" y1="356.11" x2="150" y2="161.16" gradientUnits="userSpaceOnUse"><stop offset="0" stop-color="#00aeef"/><stop offset="0.4" stop-color="#2e3192"/></linearGradient><linearGradient id="linear-gradient-2" x1="150.37" y1="349.85" x2="149.01" y2="159.33" gradientUnits="userSpaceOnUse"><stop offset="0" stop-color="#ed1c24"/><stop offset="0.34" stop-color="#9a1c25"/></linearGradient></defs><title>blook_macaw-2</title><g id="tropical"><path class="cls-1" d="M263.62,345H36.38A36.38,36.38,0,0,1,0,308.62V259.14H300v49.48A36.38,36.38,0,0,1,263.62,345Z"/><polygon class="cls-2" points="238.84 345 61.16 345 48.72 298.39 251.28 298.39 238.84 345"/><path class="cls-3" d="M150,45C16.37,45,0,169.85,0,189.94v47.65A36.38,36.38,0,0,0,36.38,274H263.62A36.38,36.38,0,0,0,300,237.59V189.94C300,169.85,283.63,45,150,45Z"/><path class="cls-4" d="M300,262V213.17c-7.14,15-21.09,49-47.94,49-65.11,0-49.78-62.15-102.06-62.15s-36.95,62.15-102.06,62.15c-26.85,0-40.8-34.07-47.94-49V262a36.38,36.38,0,0,0,36.38,36.38H263.62A36.38,36.38,0,0,0,300,262Z"/><path class="cls-4" d="M97.59,298.32a34.54,34.54,0,0,1-11.21,30.51S71.65,316.09,71.1,302c0,0,2.43,12.13-13.56,23.68,0,0-17-14.6-8.66-31.12"/><path class="cls-5" d="M97.59,298.32c.22.68.46,1.37.66,2.07a13.33,13.33,0,0,1,.55,2.13,28.15,28.15,0,0,1,.57,4.41,32.68,32.68,0,0,1-.08,4.53c-.05.76-.22,1.5-.33,2.26l-.18,1.14L98.51,316a30.54,30.54,0,0,1-3.48,8.6,24.63,24.63,0,0,1-2.8,3.74A18.94,18.94,0,0,1,90.54,330c-.29.26-.61.51-.94.76-.15.12-.32.25-.5.37l-.59.39-2.74,1.81-1.62-1.9h0a24.9,24.9,0,0,1-3.36-2.69,34.53,34.53,0,0,1-2.85-3.08,36.61,36.61,0,0,1-4.57-7.1,32.43,32.43,0,0,1-2.67-8.11,19.53,19.53,0,0,1,.4-8.45h0a15.21,15.21,0,0,1,1,7.54A24,24,0,0,1,70,317.08l-.89,1.78c-.33.57-.69,1.12-1,1.68a25.43,25.43,0,0,1-2.4,3.13,32.51,32.51,0,0,1-2.84,2.67,27,27,0,0,1-3.24,2.08l-2.73,1.45-1.49-1.62h0a20.26,20.26,0,0,1-2-1.53c-.59-.54-1.17-1.09-1.71-1.67a27.7,27.7,0,0,1-6.68-12.62,22.3,22.3,0,0,1-.18-9.65,18.13,18.13,0,0,1,4.12-8.23,25.05,25.05,0,0,0-.43,8.43,23,23,0,0,0,2.34,7.44A44.14,44.14,0,0,0,55,316.94c.78,1,1.59,2.08,2.41,3.11l1.22,1.54c.39.49.86,1.06,1.15,1.48h0l-4.22-.18a22.56,22.56,0,0,1,2.39-2.31c.77-.77,1.61-1.45,2.41-2.17S62,317,62.71,316.23c.39-.37.8-.74,1.18-1.12L65,313.92a27.82,27.82,0,0,0,3.79-5.36A20.82,20.82,0,0,0,71.1,302h0a52.81,52.81,0,0,0,3.62,7c1.39,2.12,2.84,4.1,4.37,6s3.17,3.78,4.79,5.64l2.43,2.81c.78.93,1.64,1.92,2.3,2.82h0l-4.35-.09a1.89,1.89,0,0,1,.21-.3l.27-.34.58-.72,1.18-1.45c.79-1,1.57-2,2.34-3,.36-.52.77-1,1.14-1.53s.73-1,1.12-1.56l1-1.63c.35-.55.61-1.14.93-1.7A40.84,40.84,0,0,0,97,302.55C97.24,301.17,97.34,299.77,97.59,298.32Z"/><path class="cls-4" d="M202.41,298.32a34.54,34.54,0,0,0,11.21,30.51S228.35,316.09,228.9,302c0,0-2.43,12.13,13.56,23.68,0,0,17-14.6,8.66-31.12"/><path class="cls-5" d="M202.41,298.32c.25,1.45.35,2.85.63,4.23a40.84,40.84,0,0,0,3.9,11.42c.32.56.58,1.15.93,1.7l1,1.63c.39.52.76,1,1.12,1.56s.78,1,1.14,1.53c.77,1,1.55,2,2.34,3l1.18,1.45.58.72.27.34a1.89,1.89,0,0,1,.21.3l-4.35.09h0c.66-.9,1.52-1.89,2.3-2.82l2.43-2.81c1.62-1.86,3.23-3.73,4.79-5.64s3-3.91,4.37-6a52.81,52.81,0,0,0,3.62-7h0a20.82,20.82,0,0,0,2.33,6.58,27.82,27.82,0,0,0,3.79,5.36l1.09,1.19c.38.38.79.75,1.18,1.12.73.77,1.61,1.43,2.37,2.18s1.64,1.4,2.41,2.17a22.56,22.56,0,0,1,2.39,2.31l-4.22.18h0c.29-.42.76-1,1.15-1.48l1.22-1.54c.82-1,1.63-2.07,2.41-3.11a44.14,44.14,0,0,0,4.19-6.53,23,23,0,0,0,2.34-7.44,25.05,25.05,0,0,0-.43-8.43,18.13,18.13,0,0,1,4.12,8.23,22.3,22.3,0,0,1-.18,9.65A27.7,27.7,0,0,1,248.38,325c-.54.58-1.12,1.13-1.71,1.67a20.26,20.26,0,0,1-2,1.53h0l-1.49,1.62-2.73-1.45a27,27,0,0,1-3.24-2.08,32.51,32.51,0,0,1-2.84-2.67,25.43,25.43,0,0,1-2.4-3.13c-.35-.56-.71-1.11-1-1.68l-.89-1.78a24,24,0,0,1-2.15-7.56,15.21,15.21,0,0,1,1-7.54h0a19.53,19.53,0,0,1,.4,8.45,32.43,32.43,0,0,1-2.67,8.11,36.61,36.61,0,0,1-4.57,7.1,34.53,34.53,0,0,1-2.85,3.08,24.9,24.9,0,0,1-3.36,2.69h0l-1.62,1.9-2.74-1.81-.59-.39c-.18-.12-.35-.25-.5-.37-.33-.25-.65-.5-.94-.76a18.94,18.94,0,0,1-1.69-1.66,24.63,24.63,0,0,1-2.8-3.74,30.54,30.54,0,0,1-3.48-8.6l-.27-1.12-.18-1.14c-.11-.76-.28-1.5-.33-2.26a32.68,32.68,0,0,1-.08-4.53,28.15,28.15,0,0,1,.57-4.41,13.33,13.33,0,0,1,.55-2.13C202,299.69,202.19,299,202.41,298.32Z"/><path class="cls-6" d="M20.51,267.29A34.56,34.56,0,0,0,5.29,296s19.32,2.46,30.19-6.55c0,0-10.65,6.29-8.56,25.9,0,0,22.23,2.93,28.94-14.33"/><path class="cls-7" d="M20.51,267.29c-.91,1.16-1.89,2.17-2.73,3.3a36.3,36.3,0,0,0-2.36,3.4,34.78,34.78,0,0,0-3.53,7.13c-.2.62-.47,1.2-.64,1.83l-.53,1.85c-.13.64-.26,1.26-.41,1.88s-.24,1.25-.38,1.87c-.23,1.24-.44,2.48-.64,3.72L9,294.11l-.14.91-.08.44a1.13,1.13,0,0,1-.08.35l-3-3.18h0c1.11-.11,2.42-.12,3.64-.17l3.71-.06c2.47,0,4.93-.09,7.4-.21s4.9-.39,7.4-.78a52.07,52.07,0,0,0,7.61-2h0a20.79,20.79,0,0,0-3.34,6.12A28,28,0,0,0,30.68,302l-.15,1.6c0,.54,0,1.09-.05,1.62-.09,1.06,0,2.16,0,3.22s0,2.17,0,3.25a21.87,21.87,0,0,1-.12,3.32l-2.95-3h0c.51-.07,1.24-.09,1.87-.14l2-.11c1.31-.08,2.61-.17,3.91-.29a43.55,43.55,0,0,0,7.66-1.24,22.63,22.63,0,0,0,7.1-3.23,24.79,24.79,0,0,0,6-5.94,18.11,18.11,0,0,1-3.38,8.55,22.37,22.37,0,0,1-7.3,6.32A28,28,0,0,1,36.07,319a26.05,26.05,0,0,1-4.75.33c-.79,0-1.58-.07-2.38-.16a17.94,17.94,0,0,1-2.46-.45h0l-2.2,0-.74-3a25.73,25.73,0,0,1-.62-3.8A31.74,31.74,0,0,1,23,308a25.83,25.83,0,0,1,.72-3.87c.19-.64.36-1.27.56-1.9L25,300.4a24.37,24.37,0,0,1,4.2-6.66,15.15,15.15,0,0,1,6.28-4.28h0a19.59,19.59,0,0,1-6,5.93,32,32,0,0,1-7.82,3.43,37.13,37.13,0,0,1-8.33,1.35,32.71,32.71,0,0,1-4.2-.07,23.67,23.67,0,0,1-4.25-.7h0l-2.5.07-.48-3.26-.1-.7c0-.21-.05-.42-.06-.62a9.74,9.74,0,0,1-.06-1.2,20.68,20.68,0,0,1,.1-2.37,24.72,24.72,0,0,1,.92-4.59,30.23,30.23,0,0,1,4.08-8.32l.65-1,.72-.9c.49-.59.93-1.21,1.47-1.75a30.13,30.13,0,0,1,3.32-3.08,25.94,25.94,0,0,1,3.66-2.53,13.89,13.89,0,0,1,2-1C19.19,267.87,19.86,267.58,20.51,267.29Z"/><path class="cls-6" d="M279.49,267.29A34.56,34.56,0,0,1,294.71,296s-19.32,2.46-30.19-6.55c0,0,10.65,6.29,8.56,25.9,0,0-22.23,2.93-28.94-14.33"/><path class="cls-7" d="M279.49,267.29c.65.29,1.32.58,2,.89a13.89,13.89,0,0,1,1.95,1,25.94,25.94,0,0,1,3.66,2.53,30.13,30.13,0,0,1,3.32,3.08c.54.54,1,1.16,1.47,1.75l.72.9.65,1a30.23,30.23,0,0,1,4.08,8.32,24.72,24.72,0,0,1,.92,4.59,20.68,20.68,0,0,1,.1,2.37,9.74,9.74,0,0,1-.06,1.2c0,.2,0,.41-.06.62l-.1.7-.48,3.26-2.5-.07h0a23.67,23.67,0,0,1-4.25.7,32.71,32.71,0,0,1-4.2.07,37.13,37.13,0,0,1-8.33-1.35,32,32,0,0,1-7.82-3.43,19.59,19.59,0,0,1-6-5.93h0a15.15,15.15,0,0,1,6.28,4.28,24.37,24.37,0,0,1,4.2,6.66l.72,1.85c.2.63.37,1.26.56,1.9A25.83,25.83,0,0,1,277,308a31.74,31.74,0,0,1,.09,3.9,25.73,25.73,0,0,1-.62,3.8l-.74,3-2.2,0h0a17.94,17.94,0,0,1-2.46.45c-.8.09-1.59.15-2.38.16a26.05,26.05,0,0,1-4.75-.33,28,28,0,0,1-9.11-3.12,22.37,22.37,0,0,1-7.3-6.32,18.11,18.11,0,0,1-3.38-8.55,24.79,24.79,0,0,0,6,5.94,22.63,22.63,0,0,0,7.1,3.23,43.55,43.55,0,0,0,7.66,1.24c1.3.12,2.6.21,3.91.29l2,.11c.63.05,1.36.07,1.87.14h0l-2.95,3a21.87,21.87,0,0,1-.12-3.32c-.06-1.08,0-2.17,0-3.25s.05-2.16,0-3.22c0-.53,0-1.08,0-1.62l-.15-1.6a28,28,0,0,0-1.46-6.41,20.79,20.79,0,0,0-3.34-6.12h0a52.07,52.07,0,0,0,7.61,2c2.5.39,4.94.63,7.4.78s4.93.16,7.4.21l3.71.06c1.22.05,2.53.06,3.64.17h0l-3,3.18a1.13,1.13,0,0,1-.08-.35l-.08-.44-.14-.91-.3-1.84c-.2-1.24-.41-2.48-.64-3.72-.14-.62-.24-1.25-.38-1.87s-.28-1.24-.41-1.88l-.53-1.85c-.17-.63-.44-1.21-.64-1.83a34.78,34.78,0,0,0-3.53-7.13,36.3,36.3,0,0,0-2.36-3.4C281.38,269.46,280.4,268.45,279.49,267.29Z"/><path class="cls-4" d="M276.88,101.11c-5.4-7.52-45.66-69-126.88-69.74C68.78,32.1,28.52,93.59,23.11,101.11S10.4,139.92,10.4,139.92s36.89-45.08,70.68-16.6c11.85,10,13.58,66.15,22.64,73.69h92.56c9.06-7.54,10.79-63.7,22.64-73.69,33.79-28.48,70.68,16.6,70.68,16.6S282.32,108.67,276.88,101.11Z"/><path class="cls-5" d="M155.88,146.85s-35.8,4.47-59.19,31c2,9.31,4.12,16.74,7,19.16h92.56c1.85-1.54,3.39-5.1,4.78-9.88C193.18,177.93,166,154.07,155.88,146.85Z"/><circle class="cls-8" cx="251.79" cy="185.52" r="36.45"/><circle class="cls-9" cx="251.79" cy="195.64" r="36.45"/><circle class="cls-10" cx="252.01" cy="195.64" r="31.4"/><circle class="cls-9" cx="276.51" cy="186.28" r="9.7"/><circle class="cls-8" cx="48.21" cy="185.52" r="36.45"/><circle class="cls-9" cx="48.21" cy="195.64" r="36.45"/><circle class="cls-10" cx="47.94" cy="195.64" r="31.4"/><circle class="cls-9" cx="72.43" cy="186.28" r="9.7"/><path class="cls-10" d="M109.71,237.69s10,27.19,52.93,36.31c0,0,54-17.05,35.92-77Z"/><path class="cls-11" d="M198.56,197l-88.85,40.68s2.94,8,12.41,16.7c22.21-1.49,60.6-1.18,78.48-20.1C203.11,224.27,203.09,212,198.56,197Z"/><path class="cls-12" d="M154.71,156.71s-98.15,12.18-67,119.77c0,0,8.53-29.85,27-32C139,241.59,204,247,198.56,197,198.17,193.36,165.65,164.52,154.71,156.71Z"/><path class="cls-4" d="M128.29,33.88s-14.33-1-22.61-26.4c0,0-10.24,14.26-11.18,30.53A54.8,54.8,0,0,1,70.87,24.15S64.33,52.94,83.17,69"/><path class="cls-5" d="M128.29,33.88a10.93,10.93,0,0,1-5,0,16.12,16.12,0,0,1-2.45-.66c-.79-.28-1.55-.64-2.33-1a25.66,25.66,0,0,1-7.8-6.29,37.45,37.45,0,0,1-5.41-8.24c-.65-1.48-1.27-3-1.81-4.49s-.87-3.09-1.18-4.66l6.17,1h0c-.65.94-1.38,2.1-2,3.21S105.2,15,104.6,16.15a67.89,67.89,0,0,0-3.19,7.14,54.44,54.44,0,0,0-2.28,7.4A47.27,47.27,0,0,0,98,38.21l-.37,4.4-4.14-1.25a63.58,63.58,0,0,1-13.44-5.75,54.53,54.53,0,0,1-11.69-9l5.92-1.67h0l-.2,2.73c-.06.95-.13,1.9-.16,2.85-.09,1.91-.15,3.81-.14,5.71a73.54,73.54,0,0,0,.79,11.31,52.32,52.32,0,0,0,1.14,5.54,45.32,45.32,0,0,0,1.76,5.44A49.87,49.87,0,0,0,83.17,69a27.37,27.37,0,0,1-9.7-8.21,36.21,36.21,0,0,1-5.78-11.67,47.12,47.12,0,0,1-1.92-12.83,49.6,49.6,0,0,1,.34-6.45c.15-1.07.29-2.13.52-3.2a31.58,31.58,0,0,1,.82-3.25h0l1.4-6.31,4.52,4.63a51.42,51.42,0,0,0,22.14,13L91,37.81a53.66,53.66,0,0,1,1.3-8.71,62.8,62.8,0,0,1,2.55-8.3,75.9,75.9,0,0,1,3.52-7.86c.66-1.27,1.35-2.53,2.08-3.77s1.47-2.42,2.37-3.73h0L105.56.28,109,6.39a42.58,42.58,0,0,1,1.9,3.91c.63,1.28,1.26,2.55,1.82,3.85,1.3,2.48,2.5,5,4,7.32a47.11,47.11,0,0,0,4.87,6.68L123,29.69c.51.48,1,1,1.57,1.48A21.45,21.45,0,0,0,128.29,33.88Z"/></g></svg>